<svg width="440" height="440" viewBox="0 0 440 440" fill="none" xmlns="http://www.w3.org/2000/svg">
<path fill-rule="evenodd" clip-rule="evenodd" d="M23.5 47C10.5213 47 0 36.4787 0 23.5C0 10.5213 10.5213 0 23.5 0C36.4787 0 47 10.5213 47 23.5C47 36.4787 36.4787 47 23.5 47ZM287.671 374C290.667 388.278 303.331 399 318.5 399C335.897 399 350 384.897 350 367.5C350 350.103 335.897 336 318.5 336C304.414 336 292.487 345.246 288.458 358H228.504L229 293L213 292.878L212.122 408H61V424H213V423.885L228 424L228.382 374H287.671ZM393 416.5C393 429.479 403.521 440 416.5 440C429.479 440 440 429.479 440 416.5C440 403.521 429.479 393 416.5 393C403.521 393 393 403.521 393 416.5ZM0 416.5C0 429.479 10.5213 440 23.5 440C36.4787 440 47 429.479 47 416.5C47 403.521 36.4787 393 23.5 393C10.5213 393 0 403.521 0 416.5ZM416.5 47C403.521 47 393 36.4787 393 23.5C393 10.5213 403.521 0 416.5 0C429.479 0 440 10.5213 440 23.5C440 36.4787 429.479 47 416.5 47ZM91 72.5C91 89.897 105.103 104 122.5 104C136.586 104 148.513 94.7541 152.542 82H212V147H228V32H374V16H228H222H212V66H153.329C150.333 51.7216 137.669 41 122.5 41C105.103 41 91 55.103 91 72.5ZM336 121.5C336 135.952 345.732 148.13 359 151.84V212H293V228H408V212.001V212H375V152.102C388.776 148.737 399 136.312 399 121.5C399 104.103 384.897 90 367.5 90C350.103 90 336 104.103 336 121.5ZM408 212.001L408.006 376.001L424.006 376L424 212L408 212.001ZM41 319.5C41 336.897 55.103 351 72.5 351C89.897 351 104 336.897 104 319.5C104 305.414 94.7541 293.487 82 289.458V228H146V212H32V65H16V228H28H32H66V288.671C51.7216 291.667 41 304.331 41 319.5ZM219.5 278C187.744 278 162 252.256 162 220.5C162 188.744 187.744 163 219.5 163C251.256 163 277 188.744 277 220.5C277 252.256 251.256 278 219.5 278Z" fill="white"/>
</svg>
