<svg width="440" height="440" viewBox="0 0 440 440" fill="none" xmlns="http://www.w3.org/2000/svg">
<path fill-rule="evenodd" clip-rule="evenodd" d="M416.5 47C429.479 47 440 36.4787 440 23.5C440 10.5213 429.479 0 416.5 0C403.521 0 393 10.5213 393 23.5C393 36.4787 403.521 47 416.5 47ZM152.329 374C149.333 388.278 136.669 399 121.5 399C104.103 399 90 384.897 90 367.5C90 350.103 104.103 336 121.5 336C135.586 336 147.513 345.246 151.542 358H211.496L211 293L227 292.878L227.878 408H379V424H227V423.885L212 424L211.618 374H152.329ZM47 416.5C47 429.479 36.4787 440 23.5 440C10.5213 440 0 429.479 0 416.5C0 403.521 10.5213 393 23.5 393C36.4787 393 47 403.521 47 416.5ZM440 416.5C440 429.479 429.479 440 416.5 440C403.521 440 393 429.479 393 416.5C393 403.521 403.521 393 416.5 393C429.479 393 440 403.521 440 416.5ZM23.5 47C36.4787 47 47 36.4787 47 23.5C47 10.5213 36.4787 0 23.5 0C10.5213 0 0 10.5213 0 23.5C0 36.4787 10.5213 47 23.5 47ZM349 72.5C349 89.897 334.897 104 317.5 104C303.414 104 291.487 94.7541 287.458 82H228V147H212V32H66V16H212H218H228V66H286.671C289.667 51.7216 302.331 41 317.5 41C334.897 41 349 55.103 349 72.5ZM104 121.5C104 135.952 94.2679 148.13 81 151.84V212H147V228H32V212.001V212H65V152.102C51.224 148.737 41 136.312 41 121.5C41 104.103 55.103 90 72.5 90C89.897 90 104 104.103 104 121.5ZM32 212.001L31.9939 376.001L15.9939 376L16 212L32 212.001ZM399 319.5C399 336.897 384.897 351 367.5 351C350.103 351 336 336.897 336 319.5C336 305.414 345.246 293.487 358 289.458V228H294V212H408V65H424V228H412H408H374V288.671C388.278 291.667 399 304.331 399 319.5ZM220.5 278C252.256 278 278 252.256 278 220.5C278 188.744 252.256 163 220.5 163C188.744 163 163 188.744 163 220.5C163 252.256 188.744 278 220.5 278Z" fill="black"/>
</svg>
